<svg width="25" height="18" viewBox="0 0 25 18" fill="none" xmlns="http://www.w3.org/2000/svg">
<g clip-path="url(#clip0_219_1285)">
<path d="M22.7028 2.33159C22.4356 1.33852 21.6527 0.555714 20.6597 0.288306C18.8458 -0.208008 11.5899 -0.208008 11.5899 -0.208008C11.5899 -0.208008 4.3343 -0.208008 2.52036 0.269508C1.54653 0.536626 0.744489 1.3387 0.477371 2.33159C0 4.14538 0 7.90701 0 7.90701C0 7.90701 0 11.6876 0.477371 13.4824C0.744742 14.4753 1.52744 15.2581 2.5205 15.5255C4.35339 16.022 11.5902 16.022 11.5902 16.022C11.5902 16.022 18.8458 16.022 20.6597 15.5444C21.6528 15.2772 22.4356 14.4944 22.703 13.5015C23.1802 11.6875 23.1802 7.92606 23.1802 7.92606C23.1802 7.92606 23.1993 4.14534 22.7028 2.33159ZM9.27976 11.3821V4.43184L15.3134 7.90694L9.27976 11.3821Z" fill="white"/>
</g>
<defs>
<clipPath id="clip0_219_1285">
<rect width="24.7258" height="17.4336" fill="white"/>
</clipPath>
</defs>
</svg>
